# xmcd
#
# Track frame offsets:
#	221
#	4300
#	24184
#	42820
#	61233
#	82000
#	99474
#	121050
#	139701
#
# Disc length: 2111 seconds
#
# Revision: 1
# Processed by: cddbd v1.4PL0 Copyright (c) Steve Scherf et al.
# Submitted via: EasyCDDAExtractor 5.0.6
#
DISCID=66083d09
DTITLE=Peti Denis - Krakement 14
DYEAR=2002
DGENRE=Zouglou
TTITLE0=Krakement 14
TTITLE1=Gnangni (Turbo Diesel)
TTITLE2=Debalousseur
TTITLE3=Cherie
TTITLE4=Eternite
TTITLE5=Respect
TTITLE6=Djolo
TTITLE7=Hommage A Tangara
TTITLE8=Grace A Dieu
EXTD=
EXTT0=
EXTT1=
EXTT2=
EXTT3=
EXTT4=
EXTT5=
EXTT6=
EXTT7=
EXTT8=
PLAYORDER=
